<svg xmlns="http://www.w3.org/2000/svg" width="569.74" height="168.276" viewBox="0 0 569.74 168.276">
  <g id="apple_store" data-name="apple store" transform="translate(-18498.139 2781.305)">
    <path id="Path_3190" data-name="Path 3190" d="M1097.674,543H571.065A20.987,20.987,0,0,0,550,563.91V689.367a20.987,20.987,0,0,0,21.065,20.91h526.609a20.987,20.987,0,0,0,21.065-20.91V563.91A20.987,20.987,0,0,0,1097.674,543Z" transform="translate(17948.639 -3323.805)" fill="#505050" stroke="#676565" stroke-width="1"/>
    <path id="Path_3191" data-name="Path 3191" d="M658.865,603.163c-.117-12.842,10.594-19.09,11.082-19.381a23.891,23.891,0,0,0-18.768-10.073c-7.9-.825-15.555,4.69-19.578,4.69-4.1,0-10.3-4.61-16.97-4.475a25.017,25.017,0,0,0-21.035,12.735c-9.095,15.63-2.312,38.6,6.4,51.237,4.359,6.188,9.453,13.1,16.12,12.855,6.522-.268,8.959-4.128,16.831-4.128,7.8,0,10.087,4.128,16.887,3.973,7-.112,11.408-6.216,15.615-12.46a51,51,0,0,0,7.141-14.436C672.427,623.644,659,618.556,658.865,603.163Z" transform="translate(17975.063 -3303.202)" fill="#fff"/>
    <path id="Path_3192" data-name="Path 3192" d="M629.368,575.259c3.508-4.356,5.908-10.281,5.242-16.293-5.078.222-11.428,3.486-15.085,7.745-3.235,3.754-6.126,9.906-5.38,15.692C619.85,582.825,625.706,579.546,629.368,575.259Z" transform="translate(17991.713 -3313.064)" fill="#fff"/>
    <path id="Path_3193" data-name="Path 3193" d="M705.447,640.526H696.33l-4.993-15.575H673.98l-4.756,15.575h-8.876l17.2-53.026h10.622Zm-15.615-22.11-4.515-13.846q-.718-2.123-2.693-9.99h-.161q-.79,3.383-2.537,9.99l-4.436,13.846Z" transform="translate(18022.877 -3293.868)" fill="#fff"/>
    <path id="Path_3194" data-name="Path 3194" d="M728.663,615.305q0,9.755-5.309,15.416a15.584,15.584,0,0,1-11.81,5.037q-7.61,0-10.938-5.426h-.161v20.142h-8.558V609.245q0-6.132-.318-12.588H699.1l.477,6.06h.161q4.28-6.847,13-6.845a14.325,14.325,0,0,1,11.371,5.348Q728.668,606.575,728.663,615.305Zm-8.718.311a15.668,15.668,0,0,0-2.536-9.205,8.784,8.784,0,0,0-7.451-3.777,8.947,8.947,0,0,0-5.744,2.084,9.65,9.65,0,0,0-3.367,5.472,10.976,10.976,0,0,0-.4,2.589v6.375a10.174,10.174,0,0,0,2.578,7.046,8.573,8.573,0,0,0,6.694,2.872,8.782,8.782,0,0,0,7.527-3.7Q719.946,621.675,719.945,615.617Z" transform="translate(18043.881 -3288.234)" fill="#fff"/>
    <path id="Path_3195" data-name="Path 3195" d="M755.148,615.305q0,9.755-5.314,15.416a15.566,15.566,0,0,1-11.8,5.037q-7.613,0-10.935-5.426h-.161v20.142h-8.558V609.245q0-6.132-.318-12.588h7.527l.477,6.06h.161q4.276-6.847,13-6.845a14.354,14.354,0,0,1,11.377,5.348Q755.143,606.575,755.148,615.305Zm-8.719.311a15.656,15.656,0,0,0-2.541-9.205,8.771,8.771,0,0,0-7.445-3.777,8.957,8.957,0,0,0-5.749,2.084,9.655,9.655,0,0,0-3.364,5.472,11.322,11.322,0,0,0-.4,2.589v6.375A10.2,10.2,0,0,0,729.5,626.2a8.589,8.589,0,0,0,6.7,2.872,8.783,8.783,0,0,0,7.527-3.7Q746.431,621.675,746.43,615.617Z" transform="translate(18061.701 -3288.234)" fill="#fff"/>
    <path id="Path_3196" data-name="Path 3196" d="M783.172,625.969a14.087,14.087,0,0,1-4.744,11.013q-5.221,4.644-14.551,4.642-8.621,0-13.845-3.3l1.984-7.081a23.592,23.592,0,0,0,12.372,3.387q4.835,0,7.534-2.168a7.06,7.06,0,0,0,2.69-5.793,7.359,7.359,0,0,0-2.22-5.435q-2.21-2.206-7.37-4.1-14.029-5.194-14.026-15.205a13.409,13.409,0,0,1,4.918-10.714q4.9-4.18,13.078-4.177a26.087,26.087,0,0,1,12.123,2.519l-2.14,6.925a21.158,21.158,0,0,0-10.224-2.439,10.4,10.4,0,0,0-7.049,2.2,6.275,6.275,0,0,0-2.139,4.8,6.464,6.464,0,0,0,2.452,5.192q2.138,1.89,7.772,4.092,6.9,2.758,10.144,6.448A13.4,13.4,0,0,1,783.172,625.969Z" transform="translate(18083.211 -3294.18)" fill="#fff"/>
    <path id="Path_3197" data-name="Path 3197" d="M796.193,606.549H786.76v18.564q0,7.083,4.993,7.081a15.326,15.326,0,0,0,3.8-.395l.238,6.45a19.521,19.521,0,0,1-6.656.942,10.31,10.31,0,0,1-7.927-3.07q-2.848-3.071-2.854-10.308V606.541h-5.62v-6.375h5.62v-7l8.406-2.519v9.52h9.433Z" transform="translate(18098.484 -3291.751)" fill="#fff"/>
    <path id="Path_3198" data-name="Path 3198" d="M827.376,615.46q0,8.815-5.074,14.474-5.317,5.829-14.115,5.823-8.476,0-13.508-5.584a20.24,20.24,0,0,1-5.033-14.081q0-8.887,5.191-14.551t13.984-5.666q8.479,0,13.633,5.587Q827.38,606.882,827.376,615.46Zm-8.879.274a17.1,17.1,0,0,0-2.3-9.073,8.461,8.461,0,0,0-7.683-4.573,8.591,8.591,0,0,0-7.847,4.573,17.428,17.428,0,0,0-2.3,9.232,17.081,17.081,0,0,0,2.3,9.07,8.64,8.64,0,0,0,7.77,4.573q4.9,0,7.683-4.654A17.159,17.159,0,0,0,818.5,615.734Z" transform="translate(18109.863 -3288.233)" fill="#fff"/>
    <path id="Path_3199" data-name="Path 3199" d="M837.119,604.13a14.944,14.944,0,0,0-2.7-.236,8.1,8.1,0,0,0-6.975,3.387,12.658,12.658,0,0,0-2.14,7.551v20.061h-8.554l.08-26.194q0-6.612-.321-12.037h7.454l.313,7.315h.238a13.088,13.088,0,0,1,4.279-6.057,10.4,10.4,0,0,1,6.186-2.047,13.74,13.74,0,0,1,2.139.156Z" transform="translate(18127.938 -3288.234)" fill="#fff"/>
    <path id="Path_3200" data-name="Path 3200" d="M865.48,614a19.8,19.8,0,0,1-.313,3.852H839.492q.151,5.666,3.725,8.658a12.78,12.78,0,0,0,8.4,2.675,28.578,28.578,0,0,0,10.39-1.81l1.34,5.9a32.331,32.331,0,0,1-12.914,2.362q-8.958,0-14.073-5.233t-5.11-14.041q0-8.649,4.762-14.4a16.447,16.447,0,0,1,13.466-6.132q8.328,0,12.609,6.132A20.566,20.566,0,0,1,865.48,614Zm-8.161-2.2a11.476,11.476,0,0,0-1.661-6.531,7.493,7.493,0,0,0-6.82-3.541,8.134,8.134,0,0,0-6.812,3.463,12.619,12.619,0,0,0-2.534,6.606h17.827Z" transform="translate(18137.852 -3288.263)" fill="#fff"/>
    <path id="Path_3201" data-name="Path 3201" d="M684.958,573.068q0,7.035-4.247,10.592-3.932,3.28-11.171,3.282a52.469,52.469,0,0,1-6.152-.31V561.007a45.593,45.593,0,0,1,7.245-.542q6.9,0,10.4,2.976Q684.956,566.806,684.958,573.068Zm-4.434.115q0-4.559-2.434-7t-7.108-2.434a17.887,17.887,0,0,0-3.389.271V583.5a22.6,22.6,0,0,0,2.842.115q4.83,0,7.454-2.666T680.524,573.183Z" transform="translate(18024.922 -3312.056)" fill="#fff"/>
    <path id="Path_3202" data-name="Path 3202" d="M697.8,574.315a10.26,10.26,0,0,1-2.492,7.112,8.927,8.927,0,0,1-6.932,2.862,8.484,8.484,0,0,1-6.639-2.747,9.95,9.95,0,0,1-2.469-6.917,10.153,10.153,0,0,1,2.549-7.148,8.869,8.869,0,0,1,6.872-2.782,8.688,8.688,0,0,1,6.7,2.742A9.871,9.871,0,0,1,697.8,574.315Zm-4.363.135a8.442,8.442,0,0,0-1.129-4.458,4.156,4.156,0,0,0-3.772-2.246,4.222,4.222,0,0,0-3.857,2.246,8.564,8.564,0,0,0-1.129,4.535,8.442,8.442,0,0,0,1.129,4.458,4.249,4.249,0,0,0,3.817,2.248,4.2,4.2,0,0,0,3.772-2.288A8.385,8.385,0,0,0,693.434,574.451Z" transform="translate(18035.602 -3309.208)" fill="#fff"/>
    <path id="Path_3203" data-name="Path 3203" d="M720.222,564.926,714.3,583.709h-3.852L708,575.553a60.715,60.715,0,0,1-1.522-6.069H706.4a44.306,44.306,0,0,1-1.522,6.069l-2.6,8.156h-3.9l-5.568-18.784h4.324l2.139,8.929q.775,3.167,1.285,6.029h.075q.469-2.356,1.562-5.988l2.685-8.966H708.3l2.574,8.774q.933,3.212,1.517,6.184h.115a58.843,58.843,0,0,1,1.285-6.184l2.3-8.774h4.13Z" transform="translate(18044.713 -3309.054)" fill="#fff"/>
    <path id="Path_3204" data-name="Path 3204" d="M728.9,583.867H724.7V573.11q0-4.973-3.812-4.973a3.806,3.806,0,0,0-3.039,1.367,4.829,4.829,0,0,0-1.168,3.22v11.141h-4.207V570.452q0-2.474-.152-5.375h3.7l.2,2.936h.117a6.045,6.045,0,0,1,2.18-2.267,7.14,7.14,0,0,1,3.814-1.057,6.064,6.064,0,0,1,4.4,1.7q2.18,2.085,2.18,6.223Z" transform="translate(18057.84 -3309.214)" fill="#fff"/>
    <path id="Path_3205" data-name="Path 3205" d="M730.858,587.176h-4.2v-27.4h4.2Z" transform="translate(18067.484 -3312.521)" fill="#fff"/>
    <path id="Path_3206" data-name="Path 3206" d="M751.427,574.315a10.259,10.259,0,0,1-2.493,7.112A8.934,8.934,0,0,1,742,584.29a8.475,8.475,0,0,1-6.639-2.747,9.951,9.951,0,0,1-2.469-6.917,10.153,10.153,0,0,1,2.549-7.148,8.867,8.867,0,0,1,6.868-2.782,8.7,8.7,0,0,1,6.7,2.742A9.872,9.872,0,0,1,751.427,574.315Zm-4.368.135a8.44,8.44,0,0,0-1.127-4.458,4.15,4.15,0,0,0-3.769-2.246,4.213,4.213,0,0,0-3.857,2.246,8.564,8.564,0,0,0-1.129,4.535,8.44,8.44,0,0,0,1.129,4.458,4.249,4.249,0,0,0,3.817,2.248,4.193,4.193,0,0,0,3.769-2.288A8.354,8.354,0,0,0,747.059,574.451Z" transform="translate(18071.682 -3309.208)" fill="#fff"/>
    <path id="Path_3207" data-name="Path 3207" d="M762.392,583.864h-3.777L758.3,581.7h-.117a6.494,6.494,0,0,1-5.527,2.591,5.728,5.728,0,0,1-4.319-1.7,5.313,5.313,0,0,1-1.482-3.826,5.826,5.826,0,0,1,2.9-5.256q2.9-1.817,8.161-1.776v-.351q0-3.711-3.931-3.71a8.847,8.847,0,0,0-4.933,1.392l-.855-2.742a12.2,12.2,0,0,1,6.49-1.623q7.419,0,7.427,7.77v6.917A29.14,29.14,0,0,0,762.392,583.864Zm-4.368-6.455v-2.9q-6.96-.118-6.96,3.786a2.816,2.816,0,0,0,.806,2.2,2.957,2.957,0,0,0,2.056.734,4.261,4.261,0,0,0,2.573-.87,3.548,3.548,0,0,0,1.457-2.223A3.431,3.431,0,0,0,758.024,577.408Z" transform="translate(18081.076 -3309.208)" fill="#fff"/>
    <path id="Path_3208" data-name="Path 3208" d="M777.7,587.176h-3.732l-.2-3.018h-.115a6.3,6.3,0,0,1-6.079,3.443,7.138,7.138,0,0,1-5.682-2.665,10.337,10.337,0,0,1-2.256-6.917,10.837,10.837,0,0,1,2.452-7.384,7.565,7.565,0,0,1,5.841-2.63q3.811,0,5.329,2.549h.08V559.773h4.212v22.341C777.55,583.944,777.6,585.629,777.7,587.176Zm-4.359-7.922v-3.131a6.178,6.178,0,0,0-.115-1.315,4.764,4.764,0,0,0-1.522-2.531,4.156,4.156,0,0,0-2.814-1.024,4.326,4.326,0,0,0-3.7,1.857,7.92,7.92,0,0,0-1.35,4.754,7.375,7.375,0,0,0,1.293,4.521,4.339,4.339,0,0,0,3.677,1.853,4.062,4.062,0,0,0,3.324-1.546A5.125,5.125,0,0,0,773.338,579.254Z" transform="translate(18089.672 -3312.521)" fill="#fff"/>
    <path id="Path_3209" data-name="Path 3209" d="M799.4,574.315a10.259,10.259,0,0,1-2.492,7.112,8.922,8.922,0,0,1-6.932,2.862,8.5,8.5,0,0,1-6.639-2.747,9.951,9.951,0,0,1-2.469-6.917,10.153,10.153,0,0,1,2.549-7.148,8.872,8.872,0,0,1,6.875-2.782,8.678,8.678,0,0,1,6.7,2.742A9.872,9.872,0,0,1,799.4,574.315Zm-4.359.135a8.441,8.441,0,0,0-1.127-4.458,4.162,4.162,0,0,0-3.777-2.246,4.23,4.23,0,0,0-3.857,2.246,8.564,8.564,0,0,0-1.129,4.535,8.442,8.442,0,0,0,1.129,4.458,4.249,4.249,0,0,0,3.817,2.248,4.205,4.205,0,0,0,3.777-2.288A8.428,8.428,0,0,0,795.036,574.451Z" transform="translate(18103.955 -3309.208)" fill="#fff"/>
    <path id="Path_3210" data-name="Path 3210" d="M812.133,583.867h-4.2V573.11q0-4.973-3.817-4.973a3.793,3.793,0,0,0-3.035,1.367,4.812,4.812,0,0,0-1.167,3.22v11.141H795.7V570.452q0-2.474-.149-5.375h3.693l.2,2.936h.117a6.11,6.11,0,0,1,2.18-2.267,7.151,7.151,0,0,1,3.817-1.057,6.061,6.061,0,0,1,4.4,1.7q2.186,2.085,2.18,6.223Z" transform="translate(18113.836 -3309.214)" fill="#fff"/>
    <path id="Path_3211" data-name="Path 3211" d="M827.024,569.934h-4.633v9.125c0,2.318.823,3.479,2.454,3.479a7.5,7.5,0,0,0,1.874-.2l.109,3.168a9.548,9.548,0,0,1-3.267.465,5.051,5.051,0,0,1-3.891-1.506q-1.408-1.505-1.405-5.065v-9.471H815.5v-3.128h2.765v-3.443l4.123-1.234V566.8h4.632v3.131Z" transform="translate(18127.256 -3310.936)" fill="#fff"/>
    <path id="Path_3212" data-name="Path 3212" d="M842.311,587.176H838.1V576.5q0-5.051-3.809-5.053a4.014,4.014,0,0,0-4.015,2.929,5.238,5.238,0,0,0-.2,1.5v11.3h-4.2v-27.4h4.2v11.321h.08a6.369,6.369,0,0,1,5.684-3.088,5.88,5.88,0,0,1,4.326,1.7q2.138,2.12,2.14,6.3Z" transform="translate(18134.238 -3312.521)" fill="#fff"/>
    <path id="Path_3213" data-name="Path 3213" d="M856.2,573.6a10.024,10.024,0,0,1-.157,1.894H843.429a5.46,5.46,0,0,0,1.827,4.251,6.3,6.3,0,0,0,4.13,1.315,14.021,14.021,0,0,0,5.1-.888l.659,2.9a15.952,15.952,0,0,1-6.35,1.159,9.21,9.21,0,0,1-6.908-2.569,9.427,9.427,0,0,1-2.509-6.9,10.691,10.691,0,0,1,2.337-7.073,8.064,8.064,0,0,1,6.614-3.013,7.054,7.054,0,0,1,6.186,3.013A9.971,9.971,0,0,1,856.2,573.6Zm-4.015-1.079a5.59,5.59,0,0,0-.815-3.208,3.681,3.681,0,0,0-3.347-1.741,4,4,0,0,0-3.347,1.7,6.3,6.3,0,0,0-1.25,3.249Z" transform="translate(18143.322 -3309.223)" fill="#fff"/>
  </g>
</svg>
