<?xml version="1.0" encoding="utf-8"?><svg xmlns="http://www.w3.org/2000/svg" 
xmlns:xlink="http://www.w3.org/1999/xlink" width="1366" height="657" preserveAspectRatio="xMidYMid" 
viewBox="0 0 1366 657" 
style="z-index:1;margin-right:-2px;display:block;background-repeat-y:initial;background-repeat-x:initial;background-color:rgb(221, 221, 221);animation-play-state:paused" ><g transform="translate(683,328.5) scale(1,1) translate(-683,-328.5)" style="transform:matrix(1, 0, 0, 1, 0, 0);animation-play-state:paused" ><defs style="animation-play-state:paused" ><linearGradient id="ldbk-photon-turrkrprwvi-lg" x1="658" x2="1366" y1="0" y2="0" gradientUnits="userSpaceOnUse" style="animation-play-state:paused" ><stop stop-color="#fdb201" offset="0" style="animation-play-state:paused" ></stop>

    
<stop stop-color="#ffffff" offset="1" style="animation-play-state:paused" ></stop></linearGradient>

  
<mask id="ldbk-photon-turrkrprwvi-mask" style="animation-play-state:paused" ><g style="animation-play-state:paused" ><path d="M1666 -0.5 L662.512846875167 -0.5 A15 15 0 0 1 662.512846875167 30.5 L1666 30.5" fill="#fff" transform="matrix(1,0,0,1,47.85930252075195,0)" style="transform:matrix(1, 0, 0, 1, 47.8593, 0);animation-play-state:paused" ></path>
<path d="M1417.4294819940017 -0.5 L1438.8589639880033 -0.5 A15 15 0 0 1 1438.8589639880033 30.5 L1417.4294819940017 30.5 A15 15 0 0 1 1417.4294819940017 -0.5" fill="#000" transform="matrix(1,0,0,1,0,0)" opacity="1" style="transform:matrix(1, 0, 0, 1, 0, 0);animation-play-state:paused" ></path>
<path d="M1666 29.5 L636.0947387780088 29.5 A15 15 0 0 0 636.0947387780088 60.5 L1666 60.5" fill="#fff" transform="matrix(1,0,0,1,-2.3582229614257812,0)" style="transform:matrix(1, 0, 0, 1, -2.35822, 0);animation-play-state:paused" ></path>
<path d="M719.7682378899626 29.5 L754.3108891575146 29.5 A15 15 0 0 1 754.3108891575146 60.5 L719.7682378899626 60.5 A15 15 0 0 1 719.7682378899626 29.5" fill="#fff" transform="matrix(1,0,0,1,0,0)" opacity="1" style="transform:matrix(1, 0, 0, 1, 0, 0);animation-play-state:paused" ></path>
<path d="M1666 59.5 L670.5803642896342 59.5 A15 15 0 0 1 670.5803642896342 90.5 L1666 90.5" fill="#fff" transform="matrix(1,0,0,1,28.77374267578125,0)" style="transform:matrix(1, 0, 0, 1, 28.7737, 0);animation-play-state:paused" ></path>
<path d="M1417.5870604165743 59.5 L1439.1741208331487 59.5 A15 15 0 0 1 1439.1741208331487 90.5 L1417.5870604165743 90.5 A15 15 0 0 1 1417.5870604165743 59.5" fill="#000" transform="matrix(1,0,0,1,-571.4013061523438,0)" opacity="0.649351" style="transform:matrix(1, 0, 0, 1, -571.401, 0);opacity:0.649351;animation-play-state:paused" ></path>
<path d="M1666 89.5 L597.546777000151 89.5 A15 15 0 0 0 597.546777000151 120.5 L1666 120.5" fill="#fff" transform="matrix(1,0,0,1,-19.898447036743164,0)" style="transform:matrix(1, 0, 0, 1, -19.8984, 0);animation-play-state:paused" ></path>
<path d="M734.244256006529 89.5 L749.3110810674884 89.5 A15 15 0 0 1 749.3110810674884 120.5 L734.244256006529 120.5 A15 15 0 0 1 734.244256006529 89.5" fill="#fff" transform="matrix(1,0,0,1,0,0)" opacity="1" style="transform:matrix(1, 0, 0, 1, 0, 0);animation-play-state:paused" ></path>
<path d="M1666 119.5 L638.329062786732 119.5 A15 15 0 0 1 638.329062786732 150.5 L1666 150.5" fill="#fff" transform="matrix(1,0,0,1,42.915496826171875,0)" style="transform:matrix(1, 0, 0, 1, 42.9155, 0);animation-play-state:paused" ></path>
<path d="M1423.2038685339305 119.5 L1450.407737067861 119.5 A15 15 0 0 1 1450.407737067861 150.5 L1423.2038685339305 150.5 A15 15 0 0 1 1423.2038685339305 119.5" fill="#000" transform="matrix(1,0,0,1,-138.29656982421875,0)" opacity="1" style="transform:matrix(1, 0, 0, 1, -138.297, 0);animation-play-state:paused" ></path>
<path d="M1666 149.5 L616.4500517016537 149.5 A15 15 0 0 0 616.4500517016537 180.5 L1666 180.5" fill="#fff" transform="matrix(1,0,0,1,-6.411170959472656,0)" style="transform:matrix(1, 0, 0, 1, -6.41117, 0);animation-play-state:paused" ></path>
<path d="M686.3763984370497 149.5 L723.6524994190481 149.5 A15 15 0 0 1 723.6524994190481 180.5 L686.3763984370497 180.5 A15 15 0 0 1 686.3763984370497 149.5" fill="#fff" transform="matrix(1,0,0,1,0,0)" opacity="1" style="transform:matrix(1, 0, 0, 1, 0, 0);animation-play-state:paused" ></path>
<path d="M1666 179.5 L657.5407245410801 179.5 A15 15 0 0 1 657.5407245410801 210.5 L1666 210.5" fill="#fff" transform="matrix(1,0,0,1,3.335524320602417,0)" style="transform:matrix(1, 0, 0, 1, 3.33552, 0);animation-play-state:paused" ></path>
<path d="M1413.4262611324348 179.5 L1430.8525222648695 179.5 A15 15 0 0 1 1430.8525222648695 210.5 L1413.4262611324348 210.5 A15 15 0 0 1 1413.4262611324348 179.5" fill="#000" transform="matrix(1,0,0,1,-967.9024047851562,0)" opacity="0.519481" style="transform:matrix(1, 0, 0, 1, -967.902, 0);opacity:0.519481;animation-play-state:paused" ></path>
<path d="M1666 209.5 L631.8250213959398 209.5 A15 15 0 0 0 631.8250213959398 240.5 L1666 240.5" fill="#fff" transform="matrix(1,0,0,1,-44.25008010864258,0)" style="transform:matrix(1, 0, 0, 1, -44.2501, 0);animation-play-state:paused" ></path>
<path d="M685.7024958636368 209.5 L696.7695113686141 209.5 A15 15 0 0 1 696.7695113686141 240.5 L685.7024958636368 240.5 A15 15 0 0 1 685.7024958636368 209.5" fill="#fff" transform="matrix(1,0,0,1,0,0)" opacity="0.12987" style="transform:matrix(1, 0, 0, 1, 0, 0);opacity:0.12987;animation-play-state:paused" ></path>
<path d="M1666 239.5 L660.0657982836129 239.5 A15 15 0 0 1 660.0657982836129 270.5 L1666 270.5" fill="#fff" transform="matrix(1,0,0,1,43.48052978515625,0)" style="transform:matrix(1, 0, 0, 1, 43.4805, 0);animation-play-state:paused" ></path>
<path d="M1415.2240048179976 239.5 L1434.4480096359953 239.5 A15 15 0 0 1 1434.4480096359953 270.5 L1415.2240048179976 270.5 A15 15 0 0 1 1415.2240048179976 239.5" fill="#000" transform="matrix(1,0,0,1,-237.85821533203125,0)" opacity="1" style="transform:matrix(1, 0, 0, 1, -237.858, 0);animation-play-state:paused" ></path>
<path d="M1666 269.5 L609.2878160561938 269.5 A15 15 0 0 0 609.2878160561938 300.5 L1666 300.5" fill="#fff" transform="matrix(1,0,0,1,-9.788557052612305,0)" style="transform:matrix(1, 0, 0, 1, -9.78856, 0);animation-play-state:paused" ></path>
<path d="M726.8147422652421 269.5 L743.6547739684731 269.5 A15 15 0 0 1 743.6547739684731 300.5 L726.8147422652421 300.5 A15 15 0 0 1 726.8147422652421 269.5" fill="#fff" transform="matrix(1,0,0,1,0,0)" opacity="0.454545" style="transform:matrix(1, 0, 0, 1, 0, 0);opacity:0.454545;animation-play-state:paused" ></path>
<path d="M1666 299.5 L663.252392806623 299.5 A15 15 0 0 1 663.252392806623 330.5 L1666 330.5" fill="#fff" transform="matrix(1,0,0,1,43.816165924072266,0)" style="transform:matrix(1, 0, 0, 1, 43.8162, 0);animation-play-state:paused" ></path>
<path d="M1413.4233379736509 299.5 L1430.8466759473017 299.5 A15 15 0 0 1 1430.8466759473017 330.5 L1413.4233379736509 330.5 A15 15 0 0 1 1413.4233379736509 299.5" fill="#000" transform="matrix(1,0,0,1,-1231.2401123046875,0)" opacity="0.389611" style="transform:matrix(1, 0, 0, 1, -1231.24, 0);opacity:0.389611;animation-play-state:paused" ></path>
<path d="M1666 329.5 L628.6506112597212 329.5 A15 15 0 0 0 628.6506112597212 360.5 L1666 360.5" fill="#fff" transform="matrix(1,0,0,1,0,0)" style="transform:matrix(1, 0, 0, 1, 0, 0);animation-play-state:paused" ></path>
<path d="M717.6063516260838 329.5 L756.2729348324942 329.5 A15 15 0 0 1 756.2729348324942 360.5 L717.6063516260838 360.5 A15 15 0 0 1 717.6063516260838 329.5" fill="#fff" transform="matrix(1,0,0,1,0,0)" opacity="0.714286" style="transform:matrix(1, 0, 0, 1, 0, 0);opacity:0.714286;animation-play-state:paused" ></path>
<path d="M1666 359.5 L670.1617852500893 359.5 A15 15 0 0 1 670.1617852500893 390.5 L1666 390.5" fill="#fff" transform="matrix(1,0,0,1,5.746540546417236,0)" style="transform:matrix(1, 0, 0, 1, 5.74654, 0);animation-play-state:paused" ></path>
<path d="M1431.6323986762236 359.5 L1467.2647973524472 359.5 A15 15 0 0 1 1467.2647973524472 390.5 L1431.6323986762236 390.5 A15 15 0 0 1 1431.6323986762236 359.5" fill="#000" transform="matrix(1,0,0,1,-1114.4212646484375,0)" opacity="0.12987" style="transform:matrix(1, 0, 0, 1, -1114.42, 0);opacity:0.12987;animation-play-state:paused" ></path>
<path d="M1666 389.5 L645.8026752942963 389.5 A15 15 0 0 0 645.8026752942963 420.5 L1666 420.5" fill="#fff" transform="matrix(1,0,0,1,-16.397075653076172,0)" style="transform:matrix(1, 0, 0, 1, -16.3971, 0);animation-play-state:paused" ></path>
<path d="M741.079108597439 389.5 L761.1634853386136 389.5 A15 15 0 0 1 761.1634853386136 420.5 L741.079108597439 420.5 A15 15 0 0 1 741.079108597439 389.5" fill="#fff" transform="matrix(1,0,0,1,0,0)" opacity="0.974026" style="transform:matrix(1, 0, 0, 1, 0, 0);opacity:0.974026;animation-play-state:paused" ></path>
<path d="M1666 419.5 L678.6130499872686 419.5 A15 15 0 0 1 678.6130499872686 450.5 L1666 450.5" fill="#fff" transform="matrix(1,0,0,1,34.661865234375,0)" style="transform:matrix(1, 0, 0, 1, 34.6619, 0);animation-play-state:paused" ></path>
<path d="M1421.6532639917991 419.5 L1447.3065279835982 419.5 A15 15 0 0 1 1447.3065279835982 450.5 L1421.6532639917991 450.5 A15 15 0 0 1 1421.6532639917991 419.5" fill="#000" transform="matrix(1,0,0,1,-1099.301025390625,0)" opacity="0.38961" style="transform:matrix(1, 0, 0, 1, -1099.3, 0);opacity:0.38961;animation-play-state:paused" ></path>
<path d="M1666 449.5 L648.1727001068073 449.5 A15 15 0 0 0 648.1727001068073 480.5 L1666 480.5" fill="#fff" transform="matrix(1,0,0,1,-36.02919006347656,0)" style="transform:matrix(1, 0, 0, 1, -36.0292, 0);animation-play-state:paused" ></path>
<path d="M794.8562031745471 449.5 L809.3113040198334 449.5 A15 15 0 0 1 809.3113040198334 480.5 L794.8562031745471 480.5 A15 15 0 0 1 794.8562031745471 449.5" fill="#fff" transform="matrix(1,0,0,1,0,0)" opacity="1" style="transform:matrix(1, 0, 0, 1, 0, 0);animation-play-state:paused" ></path>
<path d="M1666 479.5 L702.5064691138236 479.5 A15 15 0 0 1 702.5064691138236 510.5 L1666 510.5" fill="#fff" transform="matrix(1,0,0,1,0.4370458722114563,0)" style="transform:matrix(1, 0, 0, 1, 0.437046, 0);animation-play-state:paused" ></path>
<path d="M1423.86526605628 479.5 L1451.73053211256 479.5 A15 15 0 0 1 1451.73053211256 510.5 L1423.86526605628 510.5 A15 15 0 0 1 1423.86526605628 479.5" fill="#000" transform="matrix(1,0,0,1,-403.8408508300781,0)" opacity="0.909091" style="transform:matrix(1, 0, 0, 1, -403.841, 0);opacity:0.909091;animation-play-state:paused" ></path>
<path d="M1666 509.5 L638.1049477757612 509.5 A15 15 0 0 0 638.1049477757612 540.5 L1666 540.5" fill="#fff" transform="matrix(1,0,0,1,-10.365394592285156,0)" style="transform:matrix(1, 0, 0, 1, -10.3654, 0);animation-play-state:paused" ></path>
<path d="M770.1479457230183 509.5 L800.6805015421223 509.5 A15 15 0 0 1 800.6805015421223 540.5 L770.1479457230183 540.5 A15 15 0 0 1 770.1479457230183 509.5" fill="#fff" transform="matrix(1,0,0,1,0,0)" opacity="0.519481" style="transform:matrix(1, 0, 0, 1, 0, 0);opacity:0.519481;animation-play-state:paused" ></path>
<path d="M1666 539.5 L667.195886050334 539.5 A15 15 0 0 1 667.195886050334 570.5 L1666 570.5" fill="#fff" transform="matrix(1,0,0,1,5.341621398925781,0)" style="transform:matrix(1, 0, 0, 1, 5.34162, 0);animation-play-state:paused" ></path>
<path d="M1427.826893501872 539.5 L1459.6537870037441 539.5 A15 15 0 0 1 1459.6537870037441 570.5 L1427.826893501872 570.5 A15 15 0 0 1 1427.826893501872 539.5" fill="#000" transform="matrix(1,0,0,1,-964.6636352539062,0)" opacity="0.12987" style="transform:matrix(1, 0, 0, 1, -964.664, 0);opacity:0.12987;animation-play-state:paused" ></path>
<path d="M1666 569.5 L653.2030326402677 569.5 A15 15 0 0 0 653.2030326402677 600.5 L1666 600.5" fill="#fff" transform="matrix(1,0,0,1,-34.373451232910156,0)" style="transform:matrix(1, 0, 0, 1, -34.3735, 0);animation-play-state:paused" ></path>
<path d="M772.3209697227227 569.5 L804.4871084970525 569.5 A15 15 0 0 1 804.4871084970525 600.5 L772.3209697227227 600.5 A15 15 0 0 1 772.3209697227227 569.5" fill="#fff" transform="matrix(1,0,0,1,0,0)" opacity="1" style="transform:matrix(1, 0, 0, 1, 0, 0);animation-play-state:paused" ></path>
<path d="M1666 599.5 L705.1394484672467 599.5 A15 15 0 0 1 705.1394484672467 630.5 L1666 630.5" fill="#fff" transform="matrix(1,0,0,1,30.585941314697266,0)" style="transform:matrix(1, 0, 0, 1, 30.5859, 0);animation-play-state:paused" ></path>
<path d="M1408.393583563529 599.5 L1420.7871671270582 599.5 A15 15 0 0 1 1420.7871671270582 630.5 L1408.393583563529 630.5 A15 15 0 0 1 1408.393583563529 599.5" fill="#000" transform="matrix(1,0,0,1,-280.9328308105469,0)" opacity="1" style="transform:matrix(1, 0, 0, 1, -280.933, 0);animation-play-state:paused" ></path>
<path d="M1666 629.5 L650.1039616655997 629.5 A15 15 0 0 0 650.1039616655997 660.5 L1666 660.5" fill="#fff" transform="matrix(1,0,0,1,-23.988414764404297,0)" style="transform:matrix(1, 0, 0, 1, -23.9884, 0);animation-play-state:paused" ></path>
<path d="M716.7624170660634 629.5 L748.3345305973278 629.5 A15 15 0 0 1 748.3345305973278 660.5 L716.7624170660634 660.5 A15 15 0 0 1 716.7624170660634 629.5" fill="#fff" transform="matrix(1,0,0,1,0,0)" opacity="0.584415" style="transform:matrix(1, 0, 0, 1, 0, 0);opacity:0.584415;animation-play-state:paused" ></path></g></mask></defs>


<rect x="0" y="0" width="1366" height="657" fill="url(#ldbk-photon-turrkrprwvi-lg)" mask="url(#ldbk-photon-turrkrprwvi-mask)" style="animation-play-state:paused" ></rect></g></svg>