<svg xmlns="http://www.w3.org/2000/svg" width="121.24" height="136.829" viewBox="0 0 121.24 136.829">
  <g id="backside" transform="translate(-1199.261 -544.384)">
    <path id="Path_1236" data-name="Path 1236" d="M1055,337.041a10,10,0,0,1,10,0l49.62,28.65a9.986,9.986,0,0,1,5,8.66v57.3a9.986,9.986,0,0,1-5,8.66L1065,468.959a10,10,0,0,1-10,0l-49.62-28.65a9.986,9.986,0,0,1-5-8.66v-57.3a9.986,9.986,0,0,1,5-8.66Z" transform="translate(199.881 209.798)" fill="none" stroke="#feb100" stroke-width="2"/>
    <path id="Path_1237" data-name="Path 1237" d="M1062.35,378v22.647H1085v4.706h-22.65V428h-4.7V405.353H1035v-4.706h22.65V378Z" transform="translate(199.881 209)" fill="#feb100" fill-rule="evenodd"/>
  </g>
</svg>
