<svg xmlns="http://www.w3.org/2000/svg" width="121.24" height="136.829" viewBox="0 0 121.24 136.829">
  <g id="driving_License" data-name="driving License" transform="translate(-17585.38 1598.116)">
    <path id="Path_1238" data-name="Path 1238" d="M1168,337.041a10,10,0,0,1,10,0l49.62,28.65a9.986,9.986,0,0,1,5,8.66v57.3a9.986,9.986,0,0,1-5,8.66L1178,468.959a10,10,0,0,1-10,0l-49.62-28.65a9.986,9.986,0,0,1-5-8.66v-57.3a9.986,9.986,0,0,1,5-8.66Z" transform="translate(16473 -1932.702)" fill="none" stroke="#feb100" stroke-width="2"/>
    <path id="Path_1239" data-name="Path 1239" d="M1163.61,403.55l-1.83-1.008,1.14-1.746a2.733,2.733,0,1,0-5.02-1.5,2.659,2.659,0,0,0,.45,1.5l1.14,1.746-1.83,1.008a4.054,4.054,0,0,0-2.09,3.547v3.6h10.13v-3.6A4.054,4.054,0,0,0,1163.61,403.55Z" transform="translate(16473 -1932.702)" fill="#feb100"/>
    <path id="Path_1240" data-name="Path 1240" d="M1177.18,382H1204v41.719h-62V382h35.18Zm-25.48,32.563h17.87V407.1a7.9,7.9,0,0,0-2.62-5.88,6.513,6.513,0,0,0,.29-1.917,6.6,6.6,0,0,0-13.21,0,6.517,6.517,0,0,0,.29,1.917,7.9,7.9,0,0,0-2.62,5.88Zm27.29-14.22h15.38v-3.868h-15.38Zm0-6.514h15.38v-3.868h-15.38Zm12.62,10.32a1.379,1.379,0,0,1,1.3.923l1.9,5.477v7.315a.909.909,0,0,1-.91.914h-.91a.918.918,0,0,1-.92-.914v-.915H1181.1v.915a.918.918,0,0,1-.92.914h-.91a.916.916,0,0,1-.91-.914v-7.315l1.9-5.477a1.379,1.379,0,0,1,1.3-.923Zm-11.43,8.686a1.375,1.375,0,1,0,1.38-1.372A1.376,1.376,0,0,0,1180.18,412.835Zm10.06,0a1.375,1.375,0,1,0,1.37-1.372A1.367,1.367,0,0,0,1190.24,412.835Zm-7.77-6.616-1.02,3.416h10.34l-1.12-3.416Z" transform="translate(16473 -1932.702)" fill="#feb100" fill-rule="evenodd"/>
  </g>
</svg>
