<svg xmlns="http://www.w3.org/2000/svg" width="121.244" height="136.825" viewBox="0 0 121.244 136.825">
  <g id="passport" transform="translate(-17199.378 1597.484)">
    <path id="Path_1245" data-name="Path 1245" d="M262,337.041a10,10,0,0,1,10,0l49.622,28.65a10,10,0,0,1,5,8.66v57.3a10,10,0,0,1-5,8.66L272,468.959a10,10,0,0,1-10,0l-49.622-28.65a10,10,0,0,1-5-8.66v-57.3a10,10,0,0,1,5-8.66Z" transform="translate(16993 -1932.071)" fill="none" stroke="#feb100" stroke-width="2"/>
    <path id="Path_1246" data-name="Path 1246" d="M284.985,375.011a8.918,8.918,0,0,1,1.97,5.6v45.861a8.923,8.923,0,0,1-1.97,5.6,5.661,5.661,0,0,0,5.327-5.64V380.65A5.66,5.66,0,0,0,284.985,375.011Z" transform="translate(16993 -1932.071)" fill="#feb100"/>
    <path id="Path_1247" data-name="Path 1247" d="M260.7,396.823a21.036,21.036,0,0,0,1.152,6.033c.686,1.8,1.41,2.361,1.6,2.361s.911-.56,1.6-2.361a21.036,21.036,0,0,0,1.152-6.033Z" transform="translate(16993 -1932.071)" fill="#feb100"/>
    <path id="Path_1248" data-name="Path 1248" d="M263.452,385.072c-.186,0-.91.56-1.6,2.361a21.036,21.036,0,0,0-1.152,6.033h5.5a21.036,21.036,0,0,0-1.152-6.033C264.363,385.632,263.639,385.072,263.452,385.072Z" transform="translate(16993 -1932.071)" fill="#feb100"/>
    <path id="Path_1249" data-name="Path 1249" d="M269.564,393.466h3.82a10.1,10.1,0,0,0-5.189-7.205A24.389,24.389,0,0,1,269.564,393.466Z" transform="translate(16993 -1932.071)" fill="#feb100"/>
    <path id="Path_1250" data-name="Path 1250" d="M257.341,393.466a24.389,24.389,0,0,1,1.369-7.205,10.1,10.1,0,0,0-5.189,7.205Z" transform="translate(16993 -1932.071)" fill="#feb100"/>
    <path id="Path_1251" data-name="Path 1251" d="M277.871,375H243.308v57.077h34.563a5.7,5.7,0,0,0,5.726-5.65V380.65a5.694,5.694,0,0,0-5.726-5.65Zm-9.382,48.683H258.416v-3.357h10.073Zm3.357-6.715H255.059v-3.357h16.787Zm-8.394-8.393a13.43,13.43,0,1,1,13.43-13.43A13.445,13.445,0,0,1,263.452,408.575Z" transform="translate(16993 -1932.071)" fill="#feb100"/>
    <path id="Path_1252" data-name="Path 1252" d="M269.564,396.823a24.389,24.389,0,0,1-1.369,7.205,10.1,10.1,0,0,0,5.189-7.205Z" transform="translate(16993 -1932.071)" fill="#feb100"/>
    <path id="Path_1253" data-name="Path 1253" d="M257.341,396.823h-3.82a10.1,10.1,0,0,0,5.189,7.205A24.389,24.389,0,0,1,257.341,396.823Z" transform="translate(16993 -1932.071)" fill="#feb100"/>
  </g>
</svg>
