<svg xmlns="http://www.w3.org/2000/svg" width="253.041" height="33.04" viewBox="0 0 253.041 33.04">
  <g id="Layer_x0020_1" transform="translate(0 -0.01)">
    <path id="Path_3031" data-name="Path 3031" d="M82.93,6.2a16.074,16.074,0,0,1-4.42,1.21,7.615,7.615,0,0,0,3.37-4.24,15.462,15.462,0,0,1-4.86,1.86,7.706,7.706,0,0,0-13.09,6.99A21.693,21.693,0,0,1,48.12,3.99a7.742,7.742,0,0,0-1.05,3.88,7.664,7.664,0,0,0,3.41,6.37,7.544,7.544,0,0,1-3.46-.94v.08a7.706,7.706,0,0,0,6.14,7.54,7.634,7.634,0,0,1-2.01.25,6.926,6.926,0,0,1-1.45-.13,7.727,7.727,0,0,0,7.17,5.34,15.413,15.413,0,0,1-9.51,3.27,15.958,15.958,0,0,1-1.84-.1,21.624,21.624,0,0,0,11.77,3.44c14.12,0,21.83-11.69,21.83-21.83q0-.51-.03-.99a15.3,15.3,0,0,0,3.84-3.98Z" fill="#feb100" fill-rule="evenodd"/>
    <path id="Path_3032" data-name="Path 3032" d="M252.38,10.06a4.032,4.032,0,0,0-2.84-2.84c-2.52-.69-12.6-.69-12.6-.69s-10.08,0-12.6.66a4.13,4.13,0,0,0-2.84,2.86,42.661,42.661,0,0,0-.66,7.74,42.482,42.482,0,0,0,.66,7.74,4.032,4.032,0,0,0,2.84,2.84c2.54.69,12.6.69,12.6.69s10.08,0,12.6-.66a4.032,4.032,0,0,0,2.84-2.84,42.661,42.661,0,0,0,.66-7.74,40.231,40.231,0,0,0-.66-7.77h0ZM233.74,22.63V12.98l8.38,4.83-8.38,4.83ZM233.74,22.63Z" fill="#feb100" fill-rule="evenodd"/>
    <path id="Path_3033" data-name="Path 3033" d="M13.5,5.49h3.02V.24A39.556,39.556,0,0,0,12.13.01C7.78.01,4.8,2.74,4.8,7.77V12.4H0v5.87H4.8V33.05h5.88V18.28h4.6l.73-5.87H10.67V8.36c0-1.7.46-2.86,2.82-2.86h0Z" fill="#feb100" fill-rule="evenodd"/>
    <path id="Path_3034" data-name="Path 3034" d="M193.16,30.52h.01V20.14c0-5.08-1.09-8.99-7.03-8.99a6.172,6.172,0,0,0-5.55,3.05h-.08V11.62h-5.63v18.9h5.86V21.16c0-2.47.47-4.85,3.52-4.85,3.01,0,3.05,2.81,3.05,5.01v9.2h5.86Z" fill="#feb100" fill-rule="evenodd"/>
    <path id="Path_3035" data-name="Path 3035" d="M165.31,11.62h5.87v18.9h-5.87Z" fill="#feb100" fill-rule="evenodd"/>
    <path id="Path_3036" data-name="Path 3036" d="M168.25,2.2a3.415,3.415,0,1,0,3.4,3.4,3.4,3.4,0,0,0-3.4-3.4Z" fill="#feb100" fill-rule="evenodd"/>
    <path id="Path_3037" data-name="Path 3037" d="M128.69,3.29H117.81a9.069,9.069,0,0,0-9.07,9.07V23.24a9.069,9.069,0,0,0,9.07,9.07h10.88a9.069,9.069,0,0,0,9.07-9.07V12.36a9.069,9.069,0,0,0-9.07-9.07Zm6.35,19.95a6.359,6.359,0,0,1-6.35,6.35H117.81a6.359,6.359,0,0,1-6.35-6.35V12.36a6.359,6.359,0,0,1,6.35-6.35h10.88a6.359,6.359,0,0,1,6.35,6.35Z" fill="#feb100" fill-rule="evenodd"/>
    <path id="Path_3038" data-name="Path 3038" d="M123.25,10.55a7.26,7.26,0,1,0,7.25,7.26,7.259,7.259,0,0,0-7.25-7.26Zm0,11.79a4.54,4.54,0,1,1,4.53-4.54A4.549,4.549,0,0,1,123.25,22.34Z" fill="#feb100" fill-rule="evenodd"/>
    <circle id="Ellipse_124" data-name="Ellipse 124" cx="0.97" cy="0.97" r="0.97" transform="translate(130.08 9.04)" fill="#feb100"/>
  </g>
</svg>
