<svg xmlns="http://www.w3.org/2000/svg" width="70" height="70" viewBox="0 0 70 70">
  <g id="Group_109" data-name="Group 109" transform="translate(-70 -223)">
    <circle id="Ellipse_92" data-name="Ellipse 92" cx="34.5" cy="34.5" r="34.5" transform="translate(70.5 223.5)" fill="none" stroke="#feb100" stroke-width="1"/>
    <path id="Path_2681" data-name="Path 2681" d="M105,256c-3.252,0-6-1.832-6-4s2.748-4,6-4a7.1,7.1,0,0,1,4.672,1.576,2,2,0,0,0,2.656-2.992A10.586,10.586,0,0,0,107,244.168V242a2,2,0,0,0-4,0v2.16c-4.56.744-8,3.976-8,7.84,0,4.412,4.488,8,10,8,3.252,0,6,1.832,6,4s-2.748,4-6,4a7.1,7.1,0,0,1-4.672-1.576,2,2,0,1,0-2.656,2.992,10.591,10.591,0,0,0,5.328,2.42V274a2,2,0,0,0,4,0v-2.16c4.56-.744,8-3.976,8-7.84C115,259.588,110.512,256,105,256Z" fill="#feb100"/>
  </g>
</svg>
