<svg xmlns="http://www.w3.org/2000/svg" width="66" height="63" viewBox="0 0 66 63">
  <g id="Group_111" data-name="Group 111" transform="translate(-25.183 -26)">
    <ellipse id="Ellipse_85" data-name="Ellipse 85" cx="27" cy="26" rx="27" ry="26" transform="translate(25.183 26)" fill="#ff9204"/>
    <path id="Path_2371" data-name="Path 2371" d="M92.939,130.6c.437-3.032-1.786-4.663-4.826-5.751l.986-4.108-2.408-.623-.96,4c-.633-.163-1.283-.318-1.929-.471l.967-4.027L82.363,119l-.987,4.107c-.524-.123-1.038-.245-1.538-.375l0-.013-3.32-.861-.64,2.671s1.786.425,1.749.451a1.325,1.325,0,0,1,1.122,1.455l-1.123,4.68a1.921,1.921,0,0,1,.25.084l-.254-.066-1.575,6.557a.872.872,0,0,1-1.1.594c.024.037-1.75-.454-1.75-.454L72,140.695l3.133.811c.583.152,1.154.311,1.717.461l-1,4.156,2.405.623.987-4.111c.657.185,1.295.356,1.919.517l-.983,4.093,2.408.623,1-4.148c4.106.807,7.193.482,8.492-3.376,1.047-3.106-.052-4.9-2.212-6.066A3.937,3.937,0,0,0,92.939,130.6Zm-5.5,8.014c-.744,3.106-5.778,1.426-7.41,1.005l1.322-5.506C82.982,134.541,88.216,135.379,87.438,138.619Zm.745-8.059c-.679,2.825-4.869,1.39-6.228,1.038l1.2-4.994C84.512,126.957,88.89,127.613,88.183,130.56Z" transform="translate(-30.078 -81.349)" fill="#fff"/>
    <ellipse id="Ellipse_86" data-name="Ellipse 86" cx="16" cy="15.5" rx="16" ry="15.5" transform="translate(59.183 58)" fill="#f9fafb"/>
    <ellipse id="Ellipse_87" data-name="Ellipse 87" cx="12.5" cy="13.5" rx="12.5" ry="13.5" transform="translate(62.183 60)" fill="#63a99b"/>
    <path id="Path_2372" data-name="Path 2372" d="M99.508,145.524v-1.4h3.186V142H94.017v2.128H97.2v1.4c-2.59.118-4.538.632-4.538,1.249s1.949,1.13,4.538,1.249V152.5h2.3v-4.474c2.586-.119,4.529-.634,4.529-1.249s-1.944-1.128-4.529-1.248Zm0,2.119h0c-.065.005-.4.025-1.143.025-.595,0-1.013-.017-1.161-.025v0c-2.288-.1-4-.5-4-.98s1.708-.876,4-.978v1.559c.15.01.579.035,1.17.035.711,0,1.068-.029,1.134-.035v-1.559c2.284.1,3.988.5,3.988.978s-1.7.877-3.988.979" transform="translate(-23.627 -74.17)" fill="#fff"/>
  </g>
</svg>
