<svg xmlns="http://www.w3.org/2000/svg" width="568.74" height="167.276" viewBox="0 0 568.74 167.276">
  <g id="Googleplay" transform="translate(-18498.639 2981.537)">
    <path id="Path_3214" data-name="Path 3214" d="M1097.674,423H571.065A20.987,20.987,0,0,0,550,443.91V569.367a20.987,20.987,0,0,0,21.065,20.91h526.609a20.987,20.987,0,0,0,21.065-20.91V443.91A20.987,20.987,0,0,0,1097.674,423Z" transform="translate(17948.639 -3404.537)" fill="#505050"/>
    <path id="Path_3215" data-name="Path 3215" d="M767.812,485.373a18,18,0,0,0-9.924,3.036,17.751,17.751,0,0,0,6.547,32.174,17.966,17.966,0,0,0,18.355-7.571,17.685,17.685,0,0,0,3.011-9.866,17.439,17.439,0,0,0-5.2-12.673,17.721,17.721,0,0,0-12.792-5.1Zm0,28.562a10.937,10.937,0,0,1-6.231-1.442,10.772,10.772,0,0,1,3.058-19.841,10.907,10.907,0,0,1,11.386,4.428,10.747,10.747,0,0,1,1.9,6.065,10.249,10.249,0,0,1-2.763,7.511,10.4,10.4,0,0,1-7.348,3.279Zm-39.221-28.562a18,18,0,0,0-9.936,3.016,17.749,17.749,0,0,0,6.5,32.191,17.959,17.959,0,0,0,18.369-7.564,17.68,17.68,0,0,0,3.014-9.869,17.448,17.448,0,0,0-5.2-12.673,17.72,17.72,0,0,0-12.79-5.1Zm0,28.562a10.946,10.946,0,0,1-6.241-1.42,10.773,10.773,0,0,1,3.008-19.856,10.907,10.907,0,0,1,11.4,4.418,10.732,10.732,0,0,1,1.9,6.069,10.233,10.233,0,0,1-2.764,7.511,10.393,10.393,0,0,1-7.347,3.279Zm-46.722-23.084v7.527h18.2a15.712,15.712,0,0,1-4.212,9.493,18.7,18.7,0,0,1-14.03,5.52,20.294,20.294,0,0,1-14.3-5.88,19.967,19.967,0,0,1,0-28.387,20.294,20.294,0,0,1,14.3-5.88A19.456,19.456,0,0,1,695.6,478.64l5.349-5.311a26.6,26.6,0,0,0-19.085-7.82,27.959,27.959,0,0,0-20.386,7.7,27.592,27.592,0,0,0,9.4,45.758,28.036,28.036,0,0,0,10.983,1.786,25.381,25.381,0,0,0,19.422-7.737,24.993,24.993,0,0,0,6.572-17.648,24.46,24.46,0,0,0-.422-4.726Zm190.887,5.855a16.743,16.743,0,0,0-5.893-8.034,16.429,16.429,0,0,0-21.748,1.964,16.656,16.656,0,0,0-4.547,12.511,17.328,17.328,0,0,0,5.085,12.636,17.6,17.6,0,0,0,12.693,5.137,17.858,17.858,0,0,0,14.914-7.862l-6.109-4.182a10.206,10.206,0,0,1-3.745,3.621,10.315,10.315,0,0,1-5.06,1.313,9.142,9.142,0,0,1-5.176-1.372,9.046,9.046,0,0,1-3.5-4.023l23.971-9.827Zm-24.436,5.938a9.706,9.706,0,0,1,2.481-7.136,9.848,9.848,0,0,1,6.872-3.235,6.992,6.992,0,0,1,3.9.89,6.909,6.909,0,0,1,2.758,2.874Zm-19.463,17.229h7.877V467.6h-7.877Zm-12.892-30.528h-.294a12.675,12.675,0,0,0-9.438-4.182,18,18,0,0,0-12.124,5.505,17.72,17.72,0,0,0,0,24.576,18,18,0,0,0,12.124,5.507,12.265,12.265,0,0,0,9.438-4.182h.253v2.551c0,6.817-3.665,10.455-9.563,10.455a9.948,9.948,0,0,1-5.477-1.795,9.848,9.848,0,0,1-3.539-4.52l-6.867,2.844a16.961,16.961,0,0,0,6.325,7.658,17.155,17.155,0,0,0,9.558,2.839c9.225,0,16.851-5.395,16.851-18.526V486.418h-7.246Zm-9.016,24.59a10.944,10.944,0,0,1-7.089-3.474,10.774,10.774,0,0,1,0-14.63,10.944,10.944,0,0,1,7.089-3.474,10.133,10.133,0,0,1,7.073,3.394,9.984,9.984,0,0,1,2.491,7.4,9.891,9.891,0,0,1-2.477,7.434,10.043,10.043,0,0,1-7.128,3.355ZM909.661,467.6H890.829v52.274h7.879V500.051h11a16.463,16.463,0,0,0,12.34-4.317,16.241,16.241,0,0,0-5.717-27.251,16.5,16.5,0,0,0-6.623-.883Zm0,25.091h-11V474.876h11.164a9.073,9.073,0,0,1,6.39,2.626,8.921,8.921,0,0,1,0,12.686,9.068,9.068,0,0,1-6.39,2.628Zm48.574-7.527a14.831,14.831,0,0,0-8.215,1.914,14.673,14.673,0,0,0-5.813,6.074l6.992,2.885a7.467,7.467,0,0,1,7.163-3.847,7.592,7.592,0,0,1,7.549,3.894,7.51,7.51,0,0,1,.876,2.839v.544a17.509,17.509,0,0,0-8.215-2.007c-7.541,0-15.167,4.182-15.167,11.751a12.056,12.056,0,0,0,4.083,8.488,12.229,12.229,0,0,0,8.976,3.013,11.105,11.105,0,0,0,10.112-5.018h.253v4.182h7.583V499.758c0-9.158-6.992-14.469-15.967-14.469Zm-.969,28.646c-2.569,0-6.151-1.3-6.151-4.433,0-4.182,4.466-5.562,8.426-5.562a14.058,14.058,0,0,1,7.161,1.756,9.43,9.43,0,0,1-3.036,5.895,9.568,9.568,0,0,1-6.189,2.469Zm44.783-27.392-9.016,22.666h-.253l-9.352-22.666H975l14.029,31.7-8.006,17.606h8.217l21.569-49.3Zm-70.818,33.455h7.877V467.6h-7.877Z" transform="translate(18017.893 -3375.953)" fill="#fff"/>
    <path id="Path_3216" data-name="Path 3216" d="M679.565,454.451a11.285,11.285,0,0,1-3.16,8.364,12.3,12.3,0,0,1-9.267,3.722,13.346,13.346,0,0,1-7.325-2.257,13.112,13.112,0,0,1-1.986-20.2,12.687,12.687,0,0,1,9.311-3.764,13.125,13.125,0,0,1,5.181,1.045,10.407,10.407,0,0,1,3.961,2.8l-2.233,2.216a8.451,8.451,0,0,0-6.909-2.969,9.8,9.8,0,0,0-7.061,2.944,9.659,9.659,0,0,0-2.757,7.093,9.823,9.823,0,0,0,1.594,5.5,9.989,9.989,0,0,0,15.257,1.735,7.88,7.88,0,0,0,2.108-5.1h-9.142v-3.011H679.4A10.452,10.452,0,0,1,679.565,454.451ZM698.86,444H687.485v7.946H697.85v3.011H687.485V462.9H698.86v3.095H684.115V440.9H698.86Zm13.819,22h-3.245V444h-7.078V440.9h17.569V444h-7.246Zm19.631,0V440.9h3.244v25.091Zm17.653,0h-3.245V444H739.64V440.9H757V444h-7.036Zm39.937-3.262a13.213,13.213,0,0,1-18.536,0,13.474,13.474,0,0,1,0-18.609,13.121,13.121,0,0,1,18.536,0,13.435,13.435,0,0,1,0,18.609Zm-16.135-2.091a9.784,9.784,0,0,0,13.735,0,10.648,10.648,0,0,0,0-14.386,9.784,9.784,0,0,0-13.735,0,10.648,10.648,0,0,0,0,14.386Zm24.436,5.353V440.9h3.959l12.3,19.529V440.9H817.7v25.091h-3.369l-12.85-20.45v20.45Z" transform="translate(18018.586 -3392.904)" fill="#fff"/>
    <path id="Path_3218" data-name="Path 3218" d="M577.312,547.45l51.61-53.137-51.566-53.042c-1.378.826-2.23,2.738-2.23,5.241v95.747C575.144,544.761,575.966,546.535,577.312,547.45Z" transform="translate(17965.541 -3392.245)" fill="#fff"/>
    <path id="Path_3219" data-name="Path 3219" d="M628.782,493.072l15.374-15.829-62.6-35.344a6.775,6.775,0,0,0-3.471-.965l50.7,52.132Z" transform="translate(17967.529 -3392.472)" fill="#fff"/>
    <path id="Path_3220" data-name="Path 3220" d="M628.844,473.861l-50.855,52.363a6.744,6.744,0,0,0,3.631-.992l62.727-35.439Z" transform="translate(17967.469 -3370.32)" fill="#fff"/>
    <path id="Path_3221" data-name="Path 3221" d="M645.871,475.046l-20.833-11.783-15.794,16.261,15.911,16.363,20.709-11.751C650.268,481.64,650.268,477.53,645.871,475.046Z" transform="translate(17988.496 -3377.449)" fill="#fff"/>
  </g>
</svg>
